<?xml version="1.0" standalone="no"?>
<!DOCTYPE svg PUBLIC "-//W3C//DTD SVG 20010904//EN"
 "http://www.w3.org/TR/2001/REC-SVG-20010904/DTD/svg10.dtd">
<svg version="1.0" xmlns="http://www.w3.org/2000/svg"
 width="260.000000pt" height="260.000000pt" viewBox="0 0 260.000000 260.000000"
 preserveAspectRatio="xMidYMid meet">
<metadata>
Created by potrace 1.14, written by Peter Selinger 2001-2017
</metadata>
<g transform="translate(0.000000,260.000000) scale(0.100000,-0.100000)"
fill="#000000" stroke="none">
<path d="M299 2577 c-142 -49 -236 -144 -279 -285 -19 -61 -20 -99 -20 -991 0
-822 2 -934 16 -982 23 -78 50 -125 102 -181 53 -57 105 -90 186 -118 56 -19
87 -20 981 -20 651 0 939 3 977 11 153 33 277 151 322 310 15 51 16 154 14
1000 l-3 944 -23 58 c-22 53 -86 146 -121 174 -40 32 -127 76 -174 89 -42 11
-226 14 -982 14 l-930 0 -66 -23z"/>
</g>
</svg>
