<svg width="932" height="800" viewBox="0 0 932 800" fill="none" xmlns="http://www.w3.org/2000/svg">
<path d="M396.227 324.349V296.51C386.563 294.979 376.803 294.141 367.02 294C272.306 293.8 188.449 355.176 160.01 445.52C131.568 535.862 165.14 634.204 242.886 688.299C184.65 625.971 168.478 535.235 201.599 456.626C234.717 378.017 310.944 326.208 396.227 324.349V324.349Z" fill="#5E5E5E"/>
<path d="M401.475 639.697C454.429 639.626 497.96 597.905 500.278 545.001V72.8919H586.531C584.77 63.0272 583.93 53.0202 584.021 43L466.051 43V514.653C464.088 567.826 420.458 609.946 367.248 610.033C351.347 609.898 335.705 605.987 321.611 598.624C330.745 611.279 342.741 621.596 356.62 628.734C370.499 635.871 385.868 639.628 401.475 639.697V639.697ZM747.628 233.076V206.835C715.885 206.846 684.846 197.479 658.408 179.909C681.584 206.851 712.903 225.514 747.628 233.076V233.076Z" fill="#5E5E5E"/>
<path d="M658.408 179.909C632.366 150.253 618.009 112.131 618.02 72.6637H586.531C590.598 94.485 599.069 115.249 611.427 133.687C623.785 152.126 639.771 167.854 658.408 179.909ZM367.02 411.971C321.575 412.203 282.122 443.337 271.329 487.481C260.536 531.625 281.173 577.448 321.383 598.624C310.698 583.871 304.299 566.452 302.893 548.291C301.487 530.13 305.129 511.934 313.417 495.713C321.704 479.492 334.315 465.877 349.855 456.374C365.395 446.871 383.26 441.849 401.475 441.863C411.378 441.986 421.213 443.524 430.683 446.426V326.402C421.013 324.954 411.253 324.191 401.475 324.12H396.227V415.393C386.709 412.841 376.87 411.688 367.02 411.971V411.971Z" fill="#5E5E5E"/>
<path d="M747.628 233.076V324.349C688.864 324.235 631.626 305.634 584.021 271.182V511.002C583.77 630.67 486.688 727.547 367.02 727.547C322.578 727.626 279.207 713.913 242.889 688.299C303.498 753.486 397.824 774.945 480.67 742.392C563.514 709.837 618 629.905 618.02 540.894V301.759C665.785 335.985 723.094 354.343 781.855 354.241V236.727C770.351 236.69 758.881 235.467 747.628 233.076V233.076Z" fill="#5E5E5E"/>
<path d="M584.021 511.002V271.182C631.771 305.437 689.09 323.798 747.856 323.664V232.391C713.138 225.06 681.744 206.64 658.408 179.909C639.771 167.854 623.785 152.126 611.427 133.687C599.069 115.249 590.598 94.485 586.531 72.6637H500.278V545.001C498.553 587.142 470.327 623.564 429.952 635.754C389.575 647.943 345.913 633.225 321.155 599.08C280.945 577.905 260.308 532.081 271.101 487.937C281.894 443.793 321.347 412.66 366.791 412.427C376.698 412.516 386.538 414.053 395.999 416.991V325.718C310.237 327.171 233.435 379.158 200.221 458.239C167.009 537.32 183.655 628.554 242.66 690.809C279.337 715.579 322.771 728.41 367.02 727.547C486.688 727.547 583.77 630.67 584.021 511.002V511.002Z" fill="#5E5E5E"/>
</svg>
